Coordinates
version=1
nRows=11
nColumns=33
inDegrees=yes

Units are S.I. units (second, meters, Newtons, ...)
Angles are in degrees.

endheader
time	ground_thorax_rot_x	ground_thorax_rot_y	ground_thorax_rot_z	ground_thorax_tx	ground_thorax_ty	ground_thorax_tz	clav_prot_r	clav_elev_r	scapula_abduction_r	scapula_elevation_r	scapula_upward_rot_r	scapula_winging_r	shoulder_elv_r	plane_of_elev_r	axial_rot_r	elbow_flexion_r	pro_sup_r	wrist_flex_r	wrist_dev_r	clav_prot_l	clav_elev_l	scapula_abduction_l	scapula_elevation_l	scapula_upward_rot_l	scapula_winging_l	shoulder_elv_l	plane_of_elev_l	axial_rot_l	elbow_flexion_l	pro_sup_l	wrist_flex_l	wrist_dev_l	
6.1100	39.503939	9.272419	8.395320	-75.567868	779.776549	22.018296	16.678770	37.885320	45.000000	38.149354	-23.155624	-2602.235765	-3715.672444	145.529655	180.000000	1446.012065	49.131560	20.794776	13.135624	3.924388	-45.000000	-44.999998	45.000000	-23.344434	803.706520	-2263.132330	138.174881	158.569105	369.438420	22.173476	8.595014	-17.038465	
6.1200	39.440201	9.252524	8.417610	-75.940799	779.772352	21.937216	16.731213	37.798361	44.999999	38.098503	-23.283685	-2602.213050	-3715.674876	145.521062	180.000000	1446.132124	49.393470	20.872549	13.107182	3.920860	-45.000000	-44.999997	45.000000	-22.958237	803.881031	-2263.256386	138.319479	157.883784	369.535595	22.271950	8.493835	-17.067221	
6.1300	39.401097	9.207084	8.413784	-76.329961	779.762042	21.853489	16.827646	37.690032	44.999999	38.081217	-23.437167	-2602.191771	-3715.663033	145.441438	180.000000	1446.233764	49.669326	20.941762	13.200737	3.980877	-45.000000	-44.999995	45.000000	-22.573169	804.015847	-2263.390739	138.475634	157.239324	369.590793	22.362905	8.416201	-17.126823	
6.1400	39.362627	9.172797	8.430865	-76.754817	779.737899	21.763837	16.870489	37.616152	44.999998	38.058274	-23.566847	-2602.177355	-3715.654919	145.386073	180.000000	1446.325968	49.908050	21.012632	13.230635	3.989348	-45.000000	-44.999991	45.000000	-22.333946	804.138256	-2263.470707	138.573730	156.797457	369.640890	22.420068	8.355426	-17.155605	
6.1500	39.332282	9.140540	8.467845	-77.216774	779.701086	21.667863	16.891180	37.562059	44.999996	38.043321	-23.682890	-2602.150947	-3715.648044	145.354528	180.000000	1446.402290	50.111483	21.074650	13.211836	3.987118	-45.000000	-44.999984	45.000000	-22.199606	804.247404	-2263.514506	138.641283	156.496978	369.676598	22.453212	8.316875	-17.170738	
6.1600	39.311171	9.106952	8.504911	-77.720418	779.652533	21.564552	16.904063	37.526264	44.999993	38.037345	-23.805870	-2602.141310	-3715.639172	145.307004	180.000000	1446.477790	50.284929	21.136646	13.217960	3.984378	-45.000000	-44.999971	45.000000	-22.141988	804.340894	-2263.530925	138.679796	156.330348	369.701948	22.462143	8.291220	-17.182807	
6.1700	39.299880	9.080960	8.560311	-78.265619	779.596319	21.453614	16.906124	37.504780	44.999987	38.041653	-23.920164	-2602.113845	-3715.629840	145.301060	180.000000	1446.543921	50.414672	21.185222	13.160914	3.980331	-45.000000	-44.999949	45.000000	-22.152163	804.431581	-2263.528991	138.701762	156.238719	369.726092	22.458198	8.281889	-17.187625	
6.1800	39.297080	9.054171	8.605038	-78.851009	779.538215	21.334990	16.922447	37.493982	44.999976	38.055487	-24.058856	-2602.110901	-3715.613525	145.268107	180.000000	1446.618810	50.520464	21.235885	13.161763	3.991938	-45.000000	-44.999908	45.000000	-22.171039	804.519409	-2263.523615	138.717385	156.188283	369.751893	22.446394	8.270219	-17.200730	
6.1900	39.298660	9.039892	8.656908	-79.476321	779.484326	21.208521	16.932547	37.490245	44.999958	38.083408	-24.193792	-2602.087451	-3715.596713	145.279772	180.000000	1446.691758	50.587390	21.273855	13.097025	4.000161	-45.000000	-44.999835	45.000000	-22.218089	804.615198	-2263.511661	138.726058	156.144580	369.790398	22.435864	8.265270	-17.210997	
6.2000	39.307315	9.027873	8.693810	-80.142375	779.440775	21.074041	16.955502	37.492755	44.999924	38.124075	-24.357374	-2602.090424	-3715.569280	145.256361	180.000000	1446.778715	50.640115	21.318236	13.095256	4.015938	-45.000000	-44.999705	45.000000	-22.261465	804.711765	-2263.503555	138.733295	156.113087	369.834833	22.426548	8.251106	-17.227988	
6.2100	39.320214	9.021464	8.728394	-80.850413	779.413492	20.931483	16.976312	37.502417	44.999864	38.180992	-24.524709	-2602.078882	-3715.537338	145.254106	180.000000	1446.863721	50.669771	21.355797	13.051023	4.030766	-45.000000	-44.999471	45.000000	-22.317865	804.820051	-2263.489353	138.731100	156.077698	369.889408	22.423842	8.238733	-17.243544	
